#!OML:ASF F:\VICON\USERDATA\INSTALL\rory3\rory3.ASF
:FULLY-SPECIFIED
:DEGREES
3670
root -2.6522 14.9788 -13.6577 -547.425 -52.5213 544.583
lowerback 16.6877 -0.705324 -6.76361
upperback -0.222705 -1.91357 5.41283
thorax -9.25342 -0.516108 10.3845
lowerneck -11.7482 -5.07334 -1.5918
upperneck 17.4936 -6.65228 -1.60392
head 7.29985 -3.54438 -0.917579
rclavicle 1.70458e-014 1.19271e-014
rhumerus -15.0114 37.0344 -82.568
rradius 64.0536
rwrist 26.8626
rhand -21.3716 36.4291
rfingers 7.12502
rthumb 5.01552 6.50848
lclavicle 1.70458e-014 1.19271e-014
lhumerus 46.9156 -43.0499 52.6075
lradius 66.2183
lwrist 70.5525
lhand 7.06063 28.0637
lfingers 7.12502
lthumb 32.3334 55.2022
rfemur -7.01221 -8.00395 0.535611
rtibia 34.1857
rfoot -21.0001 -2.376
rtoes -47.3086
lfemur -34.7179 25.2672 -10.5873
ltibia 63.5863
lfoot -17.3587 0.330778
ltoes 17.4059
3671
root -2.66127 14.9911 -13.6576 -547.448 -52.7216 544.466
lowerback 16.7521 -0.71742 -6.82654
upperback -0.235177 -1.94735 5.35291
thorax -9.29603 -0.52637 10.3655
lowerneck -11.6862 -5.06297 -1.49298
upperneck 17.5039 -6.64785 -1.67243
head 7.28612 -3.5433 -0.953273
rclavicle 8.59744e-015 -1.66979e-014
rhumerus -15.2052 37.0168 -82.7179
rradius 63.8392
rwrist 26.7902
rhand -21.3491 36.4889
rfingers 7.12502
rthumb 5.03728 6.56874
lclavicle 8.59744e-015 -1.66979e-014
lhumerus 46.8257 -43.0661 52.5826
lradius 66.3592
lwrist 70.5364
lhand 6.78646 28.0866
lfingers 7.12502
lthumb 32.0724 55.278
rfemur -6.65131 -7.84674 0.393988
rtibia 33.9242
rfoot -21.1453 -1.82976
rtoes -47.4694
lfemur -34.3377 24.6816 -10.2688
ltibia 63.6733
lfoot -17.4301 -2.87637
ltoes 30.894
3672
root -2.66695 14.9985 -13.6548 -547.344 -52.9297 544.244
lowerback 16.8051 -0.728757 -7.02421
upperback -0.274158 -2.00352 5.31312
thorax -9.35222 -0.537697 10.4565
lowerneck -11.7034 -5.01617 -1.64476
upperneck 17.6391 -6.58535 -1.54044
head 7.34383 -3.51335 -0.884493
rclavicle 2.04251e-014 -2.38542e-015
rhumerus -15.2405 37.2083 -82.7241
rradius 63.5957
rwrist 26.6024
rhand -21.0975 36.445
rfingers 7.12502
rthumb 5.28024 6.5308
lclavicle 2.04251e-014 -2.38542e-015
lhumerus 46.6103 -43.0383 52.6452
lradius 66.4713
lwrist 70.4982
lhand 6.82176 28.0676
lfingers 7.12502
lthumb 32.106 55.2522
rfemur -6.35813 -7.6982 0.186026
rtibia 33.6834
rfoot -21.2602 -0.932122
rtoes -46.2188
lfemur -34.1821 24.3131 -10.2802
ltibia 63.7358
lfoot -17.3277 -4.17167
ltoes 35.4071
3673
root -2.6682 14.9964 -13.6488 -547.499 -52.9702 544.424
lowerback 16.8763 -0.723886 -6.91497
upperback -0.35586 -1.97626 5.32588
thorax -9.49304 -0.51667 10.4098
lowerneck -11.5853 -5.00685 -1.74133
upperneck 17.6681 -6.57344 -1.48054
head 7.3382 -3.5108 -0.845829
rclavicle 8.32908e-014 -7.95139e-016
rhumerus -15.401 37.4585 -82.793
rradius 63.3805
rwrist 26.4995
rhand -21.2986 36.1963
rfingers 7.12502
rthumb 5.086 6.27737
lclavicle 8.32908e-014 -7.95139e-016
lhumerus 46.3078 -43.043 52.7927
lradius 66.5143
lwrist 70.3293
lhand 7.28396 28.1158
lfingers 7.12502
lthumb 32.5459 55.2108
rfemur -6.25463 -7.46405 0.32313
rtibia 33.4945
rfoot -21.2418 -0.678721
rtoes -45.7259
lfemur -34.2806 24.3229 -10.2383
ltibia 63.7986
lfoot -17.382 -4.28266
ltoes 35.0114
3674
root -2.66825 14.9905 -13.641 -547.601 -53.0212 544.544
lowerback 16.9358 -0.706523 -6.78028
upperback -0.396463 -1.92894 5.31693
thorax -9.58708 -0.493022 10.3145
lowerneck -11.3458 -5.01154 -1.61225
upperneck 17.4531 -6.58615 -1.58058
head 7.21746 -3.51698 -0.887248
rclavicle 2.5196e-014 4.77083e-015
rhumerus -15.5609 37.287 -82.9573
rradius 63.1219
rwrist 26.7788
rhand -21.4564 36.2928
rfingers 7.12502
rthumb 4.93368 6.37026
lclavicle 2.5196e-014 4.77083e-015
lhumerus 46.2441 -43.0541 52.7386
lradius 66.6197
lwrist 70.3154
lhand 7.43763 28.0866
lfingers 7.12502
lthumb 32.6922 55.1513
rfemur -6.22403 -7.33209 0.418261
rtibia 33.4293
rfoot -21.2358 -0.901395
rtoes -45.9558
lfemur -34.4387 24.3953 -10.3134
ltibia 63.8473
lfoot -17.4925 -4.02438
ltoes 33.4921
3675
root -2.67073 14.9889 -13.6357 -547.639 -53.1924 544.559
lowerback 16.9439 -0.698225 -6.77025
upperback -0.388173 -1.91649 5.3133
thorax -9.58554 -0.488034 10.3014
lowerneck -11.4502 -5.01769 -1.73994
upperneck 17.5219 -6.59383 -1.43909
head 7.2681 -3.51529 -0.826995
rclavicle 6.39093e-014 -5.88403e-014
rhumerus -15.5829 37.2038 -82.979
rradius 62.8849
rwrist 26.8406
rhand -21.4493 36.098
rfingers 7.12502
rthumb 4.94051 6.17564
lclavicle 6.39093e-014 -5.88403e-014
lhumerus 46.3514 -43.0545 52.6148
lradius 66.6821
lwrist 70.3381
lhand 7.42919 27.9305
lfingers 7.12502
lthumb 32.6841 54.9968
rfemur -6.11421 -7.22993 0.423454
rtibia 33.4582
rfoot -21.2766 -1.3033
rtoes -46.2393
lfemur -34.541 24.2582 -10.4369
ltibia 63.8894
lfoot -17.4392 -3.35949
ltoes 32.1037
3676
root -2.67524 14.9907 -13.6201 -547.462 -53.3443 544.518
lowerback 16.8749 -0.710636 -6.60891
upperback -0.467033 -1.89756 5.2493
thorax -9.64495 -0.48033 10.126
lowerneck -11.7092 -4.99574 -2.01494
upperneck 17.7875 -6.56736 -1.13567
head 7.42156 -3.49312 -0.696921
rclavicle 6.01324e-014 -6.04305e-014
rhumerus -15.5697 37.3272 -82.8744
rradius 62.6783
rwrist 26.6152
rhand -21.4763 35.7861
rfingers 7.12502
rthumb 4.91443 5.86311
lclavicle 6.01324e-014 -6.04305e-014
lhumerus 46.3793 -43.0917 52.5635
lradius 66.7459
lwrist 70.3303
lhand 7.17505 27.8615
lfingers 7.12502
lthumb 32.4423 54.9777
rfemur -6.23659 -7.3011 0.351948
rtibia 33.5142
rfoot -21.4237 -1.71562
rtoes -47.244
lfemur -34.8184 24.0583 -10.657
ltibia 63.9658
lfoot -17.4442 -2.96013
ltoes 31.6187
3677
root -2.6774 14.9875 -13.5912 -547.006 -53.4035 544.341
lowerback 16.7739 -0.704729 -6.30547
upperback -0.597564 -1.82599 5.128
thorax -9.76029 -0.45016 9.78833
lowerneck -11.3746 -5.03159 -1.53789
upperneck 17.3057 -6.61635 -1.56947
head 7.17215 -3.52123 -0.895496
rclavicle -1.02672e-013 -4.29375e-014
rhumerus -15.5068 37.3786 -82.6991
rradius 62.5149
rwrist 26.3916
rhand -21.4521 35.5189
rfingers 7.12502
rthumb 4.93778 5.59645
lclavicle -1.02672e-013 -4.29375e-014
lhumerus 46.5206 -43.122 52.4075
lradius 66.8134
lwrist 70.3482
lhand 7.06734 27.6925
lfingers 7.12502
lthumb 32.3398 54.8297
rfemur -6.61962 -7.57844 0.150281
rtibia 33.5474
rfoot -21.3942 -1.73653
rtoes -47.8216
lfemur -35.3456 23.9117 -11.094
ltibia 64.073
lfoot -17.6181 -2.99216
ltoes 31.2133
3678
root -2.67639 14.9818 -13.5757 -547.148 -53.3878 544.667
lowerback 16.7518 -0.663644 -5.91941
upperback -0.62892 -1.69313 5.1386
thorax -9.82 -0.402613 9.54
lowerneck -10.3037 -5.1321 -0.293319
upperneck 15.9381 -6.74902 -2.76701
head 6.45367 -3.60258 -1.41665
rclavicle 4.22417e-015 -4.77083e-015
rhumerus -15.511 37.4259 -82.5608
rradius 62.3806
rwrist 26.1912
rhand -21.5286 35.2552
rfingers 7.12502
rthumb 4.86396 5.33103
lclavicle 4.22417e-015 -4.77083e-015
lhumerus 46.5311 -43.1066 52.4385
lradius 66.9404
lwrist 70.3849
lhand 7.19597 27.7943
lfingers 7.12502
lthumb 32.4622 54.9065
rfemur -6.76666 -7.61413 0.363515
rtibia 33.5356
rfoot -21.2914 -0.995544
rtoes -46.0687
lfemur -35.6455 23.8599 -10.9992
ltibia 64.219
lfoot -17.6858 -3.40286
ltoes 32.0662
